PathFileType	4	(X/Y/Z)	/Users/itak/Documents/Research/Walk-IL/dataset/trc/00095_00006.trc
DataRate	CameraRate	NumFrames	NumMarkers	Units	OrigDataRate	OrigDataStartFrame	OrigNumFrames
100.000000	100.000000	4	53	mm	100.000000	267	534
Frame#	Time	RPSI			LPSI			L3			STRN			T10			C7			CLAV			RBAK			LBAK			LSHO			LUPA			LAEL			LAOL			LWTS			LWPS			LFRA			LIFD			LHPS			LHTS			RSHO			RUPA			RAEL			RAOL			RWTS			RWPS			RFRA			RIFD			RHTS			RHPS			RBHD			LFHD			RFHD			LBHD			LHIP			RHIP			RASI			LASI			LKNE			LTHI			LANK			LTIP			LTOE			LMT1			LMT5			LHEE			RKNE			RTHI			RANK			RTIP			RTOE			RMT1			RMT5			RHEE			
		X1	Y1	Z1	X2	Y2	Z2	X3	Y3	Z3	X4	Y4	Z4	X5	Y5	Z5	X6	Y6	Z6	X7	Y7	Z7	X8	Y8	Z8	X9	Y9	Z9	X10	Y10	Z10	X11	Y11	Z11	X12	Y12	Z12	X13	Y13	Z13	X14	Y14	Z14	X15	Y15	Z15	X16	Y16	Z16	X17	Y17	Z17	X18	Y18	Z18	X19	Y19	Z19	X20	Y20	Z20	X21	Y21	Z21	X22	Y22	Z22	X23	Y23	Z23	X24	Y24	Z24	X25	Y25	Z25	X26	Y26	Z26	X27	Y27	Z27	X28	Y28	Z28	X29	Y29	Z29	X30	Y30	Z30	X31	Y31	Z31	X32	Y32	Z32	X33	Y33	Z33	X34	Y34	Z34	X35	Y35	Z35	X36	Y36	Z36	X37	Y37	Z37	X38	Y38	Z38	X39	Y39	Z39	X40	Y40	Z40	X41	Y41	Z41	X42	Y42	Z42	X43	Y43	Z43	X44	Y44	Z44	X45	Y45	Z45	X46	Y46	Z46	X47	Y47	Z47	X48	Y48	Z48	X49	Y49	Z49	X50	Y50	Z50	X51	Y51	Z51	X52	Y52	Z52	X53	Y53	Z53	

268	2.67	-795.642578125	1024.20703125	171.3950042724609	-723.5621337890625	1005.371520996094	11.98248481750488	-758.805908203125	1074.782470703125	97.64058685302734	-522.19970703125	1263.116577148438	193.5255584716797	-774.2373046875	1205.651977539062	104.8008346557617	-714.4656982421875	1469.669921875	133.4814300537109	-545.6131591796875	1378.921630859375	183.2194213867188	-801.7250366210938	1333.015869140625	182.64501953125	-707.4432983398438	1435.443969726562	31.34601783752441	-589.433837890625	1439.527465820312	-10.93167209625244	-605.9564208984375	1324.723266601562	-102.0474395751953	-620.5617065429688	1119.73291015625	-152.8276519775391	-690.5285034179688	1101.98388671875	-73.99282073974609	-572.6824951171875	861.4418334960938	-124.1903305053711	-626.805419921875	869.3289184570312	-188.2195434570312	-616.1426391601562	1010.905090332031	-177.0536041259766	-598.9434814453125	677.1054077148438	-130.2882232666016	-608.4810791015625	784.429931640625	-194.6463928222656	-564.1746215820312	777.404541015625	-139.3926696777344	-706.2948608398438	1427.838012695312	319.0152893066406	-731.0813598632812	1354.603271484375	377.3932800292969	-724.9953002929688	1082.619384765625	398.6549682617188	-689.9560546875	1069.088500976562	306.0854187011719	-504.4303283691406	892.9606323242188	378.4300537109375	-570.1881713867188	848.5697021484375	415.065673828125	-691.6336669921875	1005.22216796875	406.2649536132812	-427.45751953125	725.06640625	351.3662414550781	-443.766845703125	809.5183715820312	379.1596069335938	-503.228271484375	779.0516357421875	421.2611999511719	-697.2567138671875	1632.53173828125	173.5525817871094	-490.3839416503906	1677.723510742188	239.5915832519531	-595.0736083984375	1660.068359375	307.7959594726562	-589.5692749023438	1658.84130859375	91.99009704589844	-584.3242797851562	946.9194946289062	-21.04831123352051	-777.1890258789062	951.3211669921875	267.6671752929688	-656.6256103515625	959.0284423828125	308.068603515625	-516.7030639648438	960.2418823242188	80.46180725097656	-402.2658081054688	532.9617919921875	149.1116943359375	-448.8594055175781	649.9227294921875	64.11534118652344	-356.4356994628906	53.6220703125	127.6857223510742	-373.5121459960938	286.54833984375	124.9234466552734	-227.57861328125	111.2634506225586	270.9713439941406	-295.5893859863281	94.80696868896484	276.3646545410156	-259.0760498046875	68.25206756591797	173.9810485839844	-446.3468933105469	43.99503707885742	145.3739166259766	-725.418212890625	500.1366577148438	211.4702911376953	-714.7167358398438	762.5885620117188	286.9599914550781	-838.0292358398438	42.87893676757812	71.63735198974609	-755.4226684570312	380.1346130371094	181.9243469238281	-622.6694946289062	42.28016662597656	113.9640121459961	-666.630615234375	51.24956130981445	57.42329025268555	-729.6576538085938	44.33948516845703	132.9514770507812	-860.9991455078125	54.81483459472656	2.874157428741455	
269	2.68	-788.3867797851562	1022.955627441406	173.9139556884766	-714.6983032226562	1004.082153320312	15.21960830688477	-750.8856201171875	1073.739501953125	100.4414825439453	-514.9576416015625	1261.846923828125	197.9604949951172	-766.3880004882812	1204.580932617188	107.5020980834961	-706.6497192382812	1468.568725585938	136.4799346923828	-538.1190185546875	1377.654907226562	187.3289489746094	-794.3643798828125	1332.078125	185.2495574951172	-699.0048828125	1434.132934570312	34.45879745483398	-580.766357421875	1438.05517578125	-7.163573265075684	-596.9506225585938	1323.160278320312	-98.23606872558594	-611.5841064453125	1118.165649414062	-149.0229797363281	-681.9503784179688	1100.54541015625	-70.42311859130859	-564.3259887695312	859.7808837890625	-120.1090316772461	-618.0336303710938	867.8096313476562	-184.4111633300781	-607.1925659179688	1009.344665527344	-173.1634674072266	-591.0469970703125	675.4630737304688	-126.4471054077148	-599.9485473632812	782.8876342773438	-190.8020172119141	-555.923828125	775.7024536132812	-135.2866668701172	-699.4818115234375	1426.84765625	322.1642761230469	-724.5446166992188	1353.652465820312	380.4859924316406	-718.76171875	1081.709838867188	402.0390625	-683.5970458984375	1067.9794921875	309.5425109863281	-499.0629272460938	890.9793090820312	382.3561706542969	-564.97314453125	846.997802734375	419.12158203125	-685.656982421875	1004.276306152344	409.8053588867188	-422.9608459472656	722.6647338867188	355.6232604980469	-438.86669921875	807.1985473632812	383.2762145996094	-498.39404296875	777.15185546875	425.3592834472656	-689.776123046875	1630.986572265625	175.9586181640625	-483.6203918457031	1677.04931640625	243.4744110107422	-588.7645874023438	1659.287109375	310.9635009765625	-581.6468505859375	1657.376342773438	95.19229125976562	-575.1463012695312	945.6102294921875	-16.57849884033203	-770.652099609375	950.2347412109375	270.4551696777344	-650.4156494140625	957.95361328125	311.8660583496094	-508.3789367675781	959.0875244140625	85.50059509277344	-397.5730285644531	531.2341918945312	153.9561004638672	-442.5071411132812	647.191162109375	67.93016815185547	-339.2503967285156	53.63956451416016	143.3352203369141	-362.6676635742188	286.1846618652344	134.9368133544922	-212.4403228759766	117.7318496704102	285.8385620117188	-280.0262145996094	99.77632141113281	291.2938537597656	-242.4881591796875	71.68845367431641	189.6965179443359	-428.9974365234375	42.32178497314453	160.7339324951172	-720.82861328125	499.4420776367188	213.9603729248047	-709.1676635742188	761.6375122070312	290.045166015625	-837.6917114257812	43.69271087646484	71.57595062255859	-751.7998046875	379.6315307617188	183.8082733154297	-622.3770141601562	41.85800170898438	113.7969131469727	-666.3397827148438	51.08950805664062	57.4749641418457	-729.4209594726562	44.32109069824219	132.9564971923828	-860.6343994140625	56.31013870239258	2.833555459976196	
270	2.69	-780.9843139648438	1021.692443847656	176.4174346923828	-705.6549682617188	1002.807006835938	18.47623062133789	-742.8251953125	1072.70703125	103.2329940795898	-507.639892578125	1260.606811523438	202.4539337158203	-758.4022827148438	1203.512451171875	110.1924285888672	-698.767333984375	1467.477416992188	139.4553680419922	-530.56689453125	1376.409057617188	191.4741058349609	-786.918212890625	1331.140380859375	187.8306884765625	-690.4664916992188	1432.804809570312	37.55894470214844	-571.9892578125	1436.558715820312	-3.375054836273193	-587.7733764648438	1321.54150390625	-94.38249969482422	-602.3385009765625	1116.509887695312	-145.1436157226562	-673.18359375	1099.031372070312	-66.82996368408203	-555.6842041015625	858.0468139648438	-115.7999114990234	-608.890625	866.1953125	-180.4449615478516	-597.9253540039062	1007.690490722656	-169.1441345214844	-582.8057250976562	673.749267578125	-122.377067565918	-591.0132446289062	781.2581787109375	-186.7607879638672	-547.3567504882812	773.9122924804688	-130.91943359375	-692.6348266601562	1425.88037109375	325.3057250976562	-717.9994506835938	1352.740112304688	383.5776977539062	-712.5849609375	1080.8330078125	405.4346923828125	-677.2957763671875	1066.877319335938	313.019775390625	-493.9725952148438	888.8219604492188	386.39013671875	-560.0440063476562	845.3163452148438	423.2615051269531	-679.7960815429688	1003.347961425781	413.3678588867188	-418.8805236816406	720.0076904296875	360.0423278808594	-434.3048400878906	804.64697265625	387.5324096679688	-494.0104675292969	775.078369140625	429.5946960449219	-682.2224731445312	1629.41748046875	178.3527374267578	-476.8260498046875	1676.413940429688	247.3544616699219	-582.4166259765625	1658.533935546875	314.1213989257812	-573.6600952148438	1655.91064453125	98.40529632568359	-565.829833984375	944.2784423828125	-12.01711845397949	-764.0098266601562	949.1560668945312	273.2304077148438	-644.1065063476562	956.9010620117188	315.7302856445312	-499.9653625488281	957.91552734375	90.63161468505859	-392.5326232910156	529.5205078125	158.7714385986328	-436.0469970703125	644.5197143554688	71.89882659912109	-324.4629211425781	53.7442741394043	157.8749389648438	-352.9230041503906	285.7644653320312	144.3763580322266	-199.0898590087891	123.3270034790039	299.1951599121094	-266.2890319824219	104.1657485961914	304.9326171875	-228.1537933349609	74.65871429443359	203.9748840332031	-413.958740234375	41.12306213378906	175.302001953125	-716.0090942382812	498.7584838867188	216.5629730224609	-703.4397583007812	760.69970703125	293.2099304199219	-837.3516235351562	44.63315200805664	71.56911468505859	-748.008544921875	379.1553955078125	185.8001403808594	-622.0963134765625	41.46671676635742	113.6488265991211	-666.078857421875	50.96259689331055	57.55732727050781	-729.1766357421875	44.31161880493164	132.9800872802734	-860.2752075195312	57.99083709716797	2.865227699279785	
271	2.7	-773.4212036132812	1020.449340820312	178.9322357177734	-696.4501342773438	1001.592224121094	21.76456642150879	-734.607177734375	1071.70068359375	106.0381622314453	-500.2399291992188	1259.4228515625	207.0055541992188	-750.2771606445312	1202.457397460938	112.887077331543	-690.8162841796875	1466.408203125	142.4054412841797	-522.9593505859375	1375.209838867188	195.6519622802734	-779.3810424804688	1330.213012695312	190.3881378173828	-681.8320922851562	1431.478149414062	40.64301300048828	-563.1050415039062	1435.060913085938	0.4315204620361328	-578.4265747070312	1319.886352539062	-90.48466491699219	-592.826904296875	1114.786010742188	-141.1716613769531	-664.2183837890625	1097.458618164062	-63.19921493530273	-546.7427978515625	856.25927734375	-111.2478179931641	-599.3768310546875	864.5052490234375	-176.3104553222656	-588.339599609375	1005.961120605469	-164.9833984375	-574.2031860351562	671.9822998046875	-118.0697937011719	-581.6615600585938	779.5592651367188	-182.506591796875	-538.4762573242188	772.0568237304688	-126.2791061401367	-685.7601318359375	1424.960693359375	328.4319763183594	-711.4561157226562	1351.889404296875	386.6611633300781	-706.4628295898438	1080.014526367188	408.8255310058594	-671.0482788085938	1065.81298828125	316.5010070800781	-489.1684265136719	886.511962890625	390.5308227539062	-555.4194946289062	843.5582885742188	427.4790344238281	-674.0575561523438	1002.467224121094	416.9346008300781	-415.2454223632812	717.1131591796875	364.6354370117188	-430.0980834960938	801.8909301757812	391.9377136230469	-490.09814453125	772.865966796875	433.9766845703125	-674.606689453125	1627.86474609375	180.7406005859375	-470.0003356933594	1675.832275390625	251.2337188720703	-576.0336303710938	1657.830688476562	317.26904296875	-565.6011962890625	1654.468383789062	101.6317596435547	-556.40771484375	942.9605102539062	-7.365627765655518	-757.2485961914062	948.1043701171875	276.0102233886719	-637.665283203125	955.8878784179688	319.6672668457031	-491.4708251953125	956.7413940429688	95.84880065917969	-387.0990905761719	527.8551025390625	163.631591796875	-429.4723205566406	642.008056640625	76.13117218017578	-312.0982971191406	53.73301315307617	171.1710052490234	-344.2386779785156	285.1868286132812	153.2474975585938	-187.612548828125	127.7001266479492	311.1339721679688	-254.4849853515625	107.6543579101562	317.2830505371094	-216.1007995605469	76.87285614013672	216.8199920654297	-401.3137512207031	40.22295379638672	188.8623199462891	-710.9629516601562	498.0964660644531	219.2814178466797	-697.5382690429688	759.7857055664062	296.4464721679688	-837.009033203125	45.72273635864258	71.62674713134766	-744.0535278320312	378.7181091308594	187.9020233154297	-621.8350830078125	41.11286163330078	113.519645690918	-665.84619140625	50.87841415405273	57.66709518432617	-728.923828125	44.32192993164062	133.0291442871094	-859.9107666015625	59.87023162841797	2.98439359664917	
